<svg xmlns="http://www.w3.org/2000/svg" width="67" height="20" viewBox="0 0 67 20" fill="none">
  <path d="M27.1693 7.25001C26.9193 7.08872 26.6532 6.97582 26.3548 6.90324C26.0564 6.83066 25.758 6.7984 25.4596 6.7984C25.0241 6.7984 24.6209 6.86292 24.2661 6.99195C23.9032 7.12098 23.6048 7.31453 23.3548 7.57259C23.1048 7.83066 22.9274 8.14517 22.8145 8.52421L24.1854 8.71775C24.258 8.50001 24.4032 8.31453 24.6129 8.1613C24.8225 8.00808 25.1048 7.92743 25.4677 7.92743C25.8064 7.92743 26.0725 8.00808 26.25 8.17743C26.4354 8.34679 26.5241 8.58066 26.5241 8.88711V8.9113C26.5241 9.0484 26.4758 9.15324 26.3709 9.22582C26.2661 9.29034 26.0967 9.33872 25.8709 9.37098C25.6451 9.40324 25.3467 9.4355 24.9838 9.47582C24.6774 9.50808 24.387 9.56453 24.1048 9.62905C23.8225 9.70163 23.5645 9.80647 23.3387 9.94356C23.1129 10.0807 22.9354 10.2661 22.8064 10.5C22.6774 10.7339 22.6129 11.0242 22.6129 11.371C22.6129 11.7823 22.7016 12.121 22.887 12.4032C23.0725 12.6855 23.3225 12.8952 23.637 13.0323C23.9516 13.1774 24.3064 13.2419 24.7016 13.2419C25.0241 13.2419 25.3145 13.1936 25.5564 13.1049C25.7983 13.0161 26 12.8952 26.1612 12.7419C26.3225 12.5887 26.4516 12.4274 26.5403 12.2581H26.5887V13.1129H27.9919V8.9355C27.9919 8.52421 27.9193 8.17743 27.7661 7.89518C27.6209 7.63711 27.4193 7.4113 27.1693 7.25001ZM26.5241 10.8871C26.5241 11.121 26.4677 11.3307 26.3467 11.5242C26.2258 11.7178 26.0645 11.879 25.8467 11.9919C25.629 12.1129 25.3709 12.1694 25.0806 12.1694C24.7741 12.1694 24.5241 12.0968 24.3225 11.9597C24.1209 11.8226 24.0241 11.6129 24.0241 11.3468C24.0241 11.1532 24.0725 11 24.1774 10.879C24.2741 10.7581 24.4112 10.6613 24.5887 10.5968C24.758 10.5323 24.9596 10.4839 25.1774 10.4516C25.2741 10.4355 25.387 10.4194 25.5241 10.4032C25.6532 10.3871 25.7903 10.3629 25.9274 10.3387C26.0645 10.3145 26.1854 10.2823 26.2983 10.25C26.4112 10.2178 26.4838 10.1855 26.5322 10.1452V10.8871H26.5241Z" fill="#222221"/>
  <path d="M30.2178 4.39514C29.9839 4.39514 29.7823 4.47579 29.6129 4.62901C29.4436 4.78224 29.3629 4.97579 29.3629 5.19353C29.3629 5.41127 29.4436 5.59675 29.6129 5.75804C29.7823 5.91127 29.9839 5.99192 30.2178 5.99192C30.4516 5.99192 30.6532 5.91127 30.8145 5.75804C30.9839 5.60482 31.0645 5.41127 31.0645 5.19353C31.0645 4.96772 30.9839 4.78224 30.8145 4.62901C30.6532 4.47579 30.4516 4.39514 30.2178 4.39514Z" fill="#222221"/>
  <path d="M30.9435 6.87903H29.4758V13.121H30.9435V6.87903Z" fill="#222221"/>
  <path d="M35.4919 6.79034C35.1371 6.79034 34.8145 6.88712 34.5403 7.08873C34.2661 7.28228 34.0645 7.56454 33.9516 7.92744H33.8871V6.88712H32.4597V13.1291H33.9274V9.4597C33.9274 9.19357 33.9919 8.9597 34.1129 8.75809C34.2338 8.55647 34.4032 8.39518 34.6129 8.28228C34.8226 8.16938 35.0645 8.11292 35.3306 8.11292C35.4516 8.11292 35.5806 8.12099 35.7177 8.13712C35.8548 8.15325 35.9516 8.17744 36.0161 8.19357V6.83067C35.9516 6.81454 35.8629 6.80647 35.758 6.79841C35.6693 6.79841 35.5726 6.79034 35.4919 6.79034Z" fill="#222221"/>
  <path d="M40.3145 9.56453L39.25 9.33872C38.9355 9.26614 38.7097 9.16937 38.5726 9.05647C38.4355 8.94356 38.371 8.7984 38.371 8.61292C38.371 8.40324 38.4678 8.22582 38.6774 8.09679C38.8871 7.96776 39.1452 7.89518 39.4516 7.89518C39.6774 7.89518 39.871 7.9355 40.0323 8.00808C40.1855 8.08066 40.3145 8.17743 40.4113 8.2984C40.5081 8.41937 40.5726 8.5484 40.6049 8.67743L41.9436 8.53227C41.8468 8.00001 41.5807 7.58066 41.1613 7.26614C40.7419 6.95163 40.1613 6.7984 39.4355 6.7984C38.9355 6.7984 38.5 6.87905 38.1129 7.03227C37.7339 7.1855 37.4355 7.4113 37.2258 7.69356C37.0161 7.97582 36.9113 8.31453 36.9113 8.69356C36.9113 9.14518 37.0484 9.52421 37.3387 9.82259C37.629 10.121 38.0726 10.3307 38.6694 10.4516L39.7339 10.6774C40.0242 10.742 40.2339 10.8307 40.371 10.9436C40.5081 11.0565 40.5726 11.2097 40.5726 11.3871C40.5726 11.5968 40.4678 11.7742 40.25 11.9194C40.0403 12.0645 39.7581 12.1371 39.4032 12.1371C39.0645 12.1371 38.7903 12.0645 38.5807 11.9194C38.371 11.7742 38.2339 11.5645 38.1694 11.2823L36.7339 11.4194C36.8226 11.9919 37.1049 12.4436 37.5645 12.7661C38.0323 13.0887 38.6452 13.25 39.4113 13.25C39.9355 13.25 40.3952 13.1694 40.7903 13C41.1936 12.8307 41.5081 12.5968 41.7339 12.2984C41.9597 12 42.0726 11.6532 42.0807 11.2581C42.0807 10.8145 41.9355 10.4516 41.6452 10.1694C41.3549 9.88711 40.9032 9.69356 40.3145 9.56453Z" fill="#222221"/>
  <path d="M46.0887 11.9516C46.0081 11.9677 45.9274 11.9758 45.8306 11.9758C45.7097 11.9758 45.5968 11.9597 45.5 11.9193C45.4032 11.879 45.3226 11.8064 45.2581 11.7097C45.1935 11.6048 45.1694 11.4516 45.1694 11.258V8.03223H46.4032V6.89513H45.1694V5.4032H43.7016V6.89513H42.8145V8.03223H43.7016V11.5C43.7016 11.8871 43.7823 12.2177 43.9597 12.4758C44.129 12.7338 44.3629 12.9274 44.6613 13.0484C44.9597 13.1693 45.2903 13.2258 45.6532 13.2177C45.8629 13.2097 46.0403 13.1935 46.1855 13.1613C46.3306 13.129 46.4435 13.0967 46.5242 13.0726L46.2742 11.9193C46.2258 11.9274 46.1694 11.9355 46.0887 11.9516Z" fill="#222221"/>
  <path d="M51.9032 7.25001C51.6532 7.08872 51.3871 6.97582 51.0887 6.90324C50.7903 6.83066 50.4919 6.7984 50.1935 6.7984C49.758 6.7984 49.3629 6.86292 49 6.99195C48.6371 7.12098 48.3387 7.31453 48.0887 7.57259C47.8387 7.83066 47.6613 8.14517 47.5484 8.52421L48.9193 8.71775C48.9919 8.50001 49.1371 8.31453 49.3467 8.1613C49.5564 8.00808 49.8387 7.92743 50.2016 7.92743C50.5403 7.92743 50.8064 8.00808 50.9838 8.17743C51.1693 8.34679 51.258 8.58066 51.258 8.88711V8.9113C51.258 9.0484 51.2096 9.15324 51.1048 9.22582C51 9.29034 50.8306 9.33872 50.6048 9.37098C50.379 9.40324 50.0806 9.4355 49.7177 9.47582C49.4113 9.50808 49.1209 9.56453 48.8387 9.62905C48.5564 9.70163 48.2984 9.80647 48.0725 9.94356C47.8467 10.0807 47.6693 10.2661 47.5403 10.5C47.4113 10.7339 47.3467 11.0242 47.3467 11.371C47.3467 11.7823 47.4355 12.121 47.6209 12.4032C47.8064 12.6855 48.0564 12.8952 48.3709 13.0323C48.6855 13.1774 49.0403 13.2419 49.4355 13.2419C49.758 13.2419 50.0484 13.1936 50.2903 13.1049C50.5322 13.0161 50.7338 12.8952 50.8951 12.7419C51.0564 12.5887 51.1855 12.4274 51.2742 12.2581H51.3225V13.1129H52.7338V8.9355C52.7338 8.52421 52.6613 8.17743 52.508 7.89518C52.3548 7.61292 52.1532 7.4113 51.9032 7.25001ZM51.258 10.8871C51.258 11.121 51.2016 11.3307 51.0806 11.5242C50.9596 11.7178 50.7984 11.879 50.5806 11.9919C50.3629 12.1129 50.1048 12.1694 49.8145 12.1694C49.508 12.1694 49.258 12.0968 49.0564 11.9597C48.8548 11.8226 48.758 11.6129 48.758 11.3468C48.758 11.1532 48.8064 11 48.9113 10.879C49.008 10.7581 49.1451 10.6613 49.3225 10.5968C49.5 10.5323 49.6935 10.4839 49.9113 10.4516C50.008 10.4355 50.1209 10.4194 50.258 10.4032C50.3871 10.3871 50.5242 10.3629 50.6613 10.3387C50.7984 10.3145 50.9193 10.2823 51.0322 10.25C51.1451 10.2178 51.2177 10.1855 51.2661 10.1452V10.8871H51.258Z" fill="#222221"/>
  <path d="M56.1532 8.22582C56.379 8.06453 56.6451 7.98388 56.9435 7.98388C57.2984 7.98388 57.5806 8.08872 57.7984 8.29034C58.0161 8.49195 58.1451 8.74195 58.2016 9.04034H59.6048C59.5726 8.58872 59.4435 8.19356 59.2097 7.86292C58.9758 7.52421 58.6613 7.26614 58.2742 7.08066C57.879 6.89518 57.4355 6.7984 56.9274 6.7984C56.3145 6.7984 55.7903 6.9355 55.3468 7.20969C54.9032 7.48389 54.5564 7.86292 54.3145 8.34679C54.0726 8.83066 53.9516 9.39518 53.9516 10.0242C53.9516 10.6532 54.0726 11.2097 54.3145 11.6936C54.5564 12.1774 54.8951 12.5565 55.3468 12.8307C55.7903 13.1049 56.3306 13.2419 56.9516 13.2419C57.4758 13.2419 57.9274 13.1452 58.3145 12.9516C58.7016 12.7581 59.0081 12.4919 59.2339 12.1532C59.4597 11.8145 59.5887 11.4194 59.621 10.9839H58.2177C58.1774 11.2097 58.0968 11.4032 57.9758 11.5565C57.8629 11.7097 57.7177 11.8307 57.5403 11.9194C57.371 12 57.1774 12.0403 56.9597 12.0403C56.6532 12.0403 56.3871 11.9597 56.1613 11.7984C55.9355 11.6371 55.758 11.4032 55.6371 11.0968C55.5161 10.7903 55.4516 10.4274 55.4516 10C55.4516 9.58066 55.5161 9.21775 55.6371 8.91937C55.75 8.62098 55.9274 8.38711 56.1532 8.22582Z" fill="#222221"/>
  <path d="M63.9355 9.58066L66.3548 6.87905H64.6371L62.3952 9.38711H62.2903V4.7984H60.8226V13.129H62.2903V11.0242L62.8306 10.4516L64.7419 13.129H66.5L63.9355 9.58066Z" fill="#222221"/>
  <path d="M18.2742 6.59678L6.84675 0L5.66933 0.677419V2.04032L4.49191 1.3629L3.31449 2.04032V3.40323L2.13707 2.72581L0.959656 3.40323V16.5968L2.13707 17.2742L3.31449 16.5968V17.9597L4.49191 18.6371L5.66933 17.9597V19.3226L6.84675 20L18.2742 13.4032V12.0403L17.0968 11.3629L18.2742 10.6855V9.32258L17.0968 8.64516L18.2742 7.96774V6.59678ZM3.31449 15.2339L2.13707 15.9113V4.08064L3.31449 4.75806V15.2339ZM6.84675 18.6371V17.2742L15.9193 12.0403L17.0968 12.7177L6.84675 18.6371ZM6.84675 15.9113V8.15323L5.66933 7.47581V16.5968L4.49191 17.2742V5.43548L11.2097 9.31452L12.3871 8.6371L4.49191 4.08064V2.71774L14.7419 8.6371L8.02417 12.5161V13.879L15.9193 9.32258L17.0968 10L6.84675 15.9113ZM15.9193 7.95161L6.84675 2.71774V1.35484L17.0968 7.27419L15.9193 7.95161Z" fill="#222221"/>
</svg>