<svg xmlns="http://www.w3.org/2000/svg" width="66" height="20" viewBox="0 0 66 20" fill="none">
  <path d="M26.5645 7.25001C26.3145 7.08872 26.0484 6.97582 25.75 6.90324C25.4516 6.83066 25.1532 6.7984 24.8548 6.7984C24.4193 6.7984 24.0161 6.86292 23.6613 6.99195C23.2984 7.12098 23 7.31453 22.75 7.57259C22.5 7.83066 22.3226 8.14517 22.2097 8.52421L23.5806 8.71775C23.6532 8.50001 23.7984 8.31453 24.0081 8.1613C24.2177 8.00808 24.5 7.92743 24.8629 7.92743C25.2016 7.92743 25.4677 8.00808 25.6452 8.17743C25.8306 8.34679 25.9193 8.58066 25.9193 8.88711V8.9113C25.9193 9.0484 25.871 9.15324 25.7661 9.22582C25.6613 9.29034 25.4919 9.33872 25.2661 9.37098C25.0403 9.40324 24.7419 9.4355 24.379 9.47582C24.0726 9.50808 23.7823 9.56453 23.5 9.62905C23.2177 9.70163 22.9597 9.80647 22.7339 9.94356C22.5081 10.0807 22.3306 10.2661 22.2016 10.5C22.0726 10.7339 22.0081 11.0242 22.0081 11.371C22.0081 11.7823 22.0968 12.121 22.2823 12.4032C22.4677 12.6855 22.7177 12.8952 23.0323 13.0323C23.3468 13.1774 23.7016 13.2419 24.0968 13.2419C24.4193 13.2419 24.7097 13.1936 24.9516 13.1049C25.1935 13.0161 25.3952 12.8952 25.5564 12.7419C25.7177 12.5887 25.8468 12.4274 25.9355 12.2581H25.9839V13.1129H27.3871V8.9355C27.3871 8.52421 27.3145 8.17743 27.1613 7.89518C27.0161 7.63711 26.8145 7.4113 26.5645 7.25001ZM25.9193 10.8871C25.9193 11.121 25.8629 11.3307 25.7419 11.5242C25.621 11.7178 25.4597 11.879 25.2419 11.9919C25.0242 12.1129 24.7661 12.1694 24.4758 12.1694C24.1693 12.1694 23.9193 12.0968 23.7177 11.9597C23.5161 11.8226 23.4193 11.6129 23.4193 11.3468C23.4193 11.1532 23.4677 11 23.5726 10.879C23.6693 10.7581 23.8064 10.6613 23.9839 10.5968C24.1532 10.5323 24.3548 10.4839 24.5726 10.4516C24.6693 10.4355 24.7823 10.4194 24.9193 10.4032C25.0484 10.3871 25.1855 10.3629 25.3226 10.3387C25.4597 10.3145 25.5806 10.2823 25.6935 10.25C25.8064 10.2178 25.879 10.1855 25.9274 10.1452V10.8871H25.9193Z" fill="white"/>
  <path d="M29.6129 4.39517C29.379 4.39517 29.1774 4.47582 29.0081 4.62904C28.8387 4.78227 28.7581 4.97582 28.7581 5.19356C28.7581 5.4113 28.8387 5.59678 29.0081 5.75807C29.1774 5.9113 29.379 5.99195 29.6129 5.99195C29.8468 5.99195 30.0484 5.9113 30.2097 5.75807C30.379 5.60485 30.4597 5.4113 30.4597 5.19356C30.4597 4.96775 30.379 4.78227 30.2097 4.62904C30.0484 4.47582 29.8468 4.39517 29.6129 4.39517Z" fill="white"/>
  <path d="M30.3387 6.87903H28.871V13.121H30.3387V6.87903Z" fill="white"/>
  <path d="M34.8871 6.79031C34.5323 6.79031 34.2097 6.88709 33.9355 7.0887C33.6613 7.28225 33.4597 7.56451 33.3468 7.92741H33.2823V6.88709H31.8549V13.129H33.3226V9.45967C33.3226 9.19354 33.3871 8.95967 33.5081 8.75806C33.6291 8.55644 33.7984 8.39515 34.0081 8.28225C34.2178 8.16935 34.4597 8.11289 34.7258 8.11289C34.8468 8.11289 34.9758 8.12096 35.1129 8.13709C35.25 8.15322 35.3468 8.17741 35.4113 8.19354V6.83064C35.3468 6.81451 35.2581 6.80644 35.1532 6.79838C35.0645 6.79838 34.9678 6.79031 34.8871 6.79031Z" fill="white"/>
  <path d="M39.7097 9.56453L38.6452 9.33872C38.3306 9.26614 38.1048 9.16937 37.9677 9.05647C37.8306 8.94356 37.7661 8.7984 37.7661 8.61292C37.7661 8.40324 37.8629 8.22582 38.0726 8.09679C38.2823 7.96776 38.5403 7.89518 38.8468 7.89518C39.0726 7.89518 39.2661 7.9355 39.4274 8.00808C39.5806 8.08066 39.7097 8.17743 39.8064 8.2984C39.9032 8.41937 39.9677 8.5484 40 8.67743L41.3387 8.53227C41.2419 8.00001 40.9758 7.58066 40.5564 7.26614C40.1371 6.95163 39.5564 6.7984 38.8306 6.7984C38.3306 6.7984 37.8952 6.87905 37.5081 7.03227C37.129 7.1855 36.8306 7.4113 36.621 7.69356C36.4113 7.97582 36.3064 8.31453 36.3064 8.69356C36.3064 9.14518 36.4435 9.52421 36.7339 9.82259C37.0242 10.121 37.4677 10.3307 38.0645 10.4516L39.129 10.6774C39.4193 10.742 39.629 10.8307 39.7661 10.9436C39.9032 11.0565 39.9677 11.2097 39.9677 11.3871C39.9677 11.5968 39.8629 11.7742 39.6452 11.9194C39.4355 12.0645 39.1532 12.1371 38.7984 12.1371C38.4597 12.1371 38.1855 12.0645 37.9758 11.9194C37.7661 11.7742 37.629 11.5645 37.5645 11.2823L36.129 11.4194C36.2177 11.9919 36.5 12.4436 36.9597 12.7661C37.4274 13.0887 38.0403 13.25 38.8064 13.25C39.3306 13.25 39.7903 13.1694 40.1855 13C40.5887 12.8307 40.9032 12.5968 41.129 12.2984C41.3548 12 41.4677 11.6532 41.4758 11.2581C41.4758 10.8145 41.3306 10.4516 41.0403 10.1694C40.75 9.88711 40.2984 9.69356 39.7097 9.56453Z" fill="white"/>
  <path d="M45.4839 11.9516C45.4033 11.9677 45.3226 11.9758 45.2258 11.9758C45.1049 11.9758 44.992 11.9597 44.8952 11.9194C44.7984 11.879 44.7178 11.8065 44.6533 11.7097C44.5887 11.6048 44.5646 11.4516 44.5646 11.2581V8.03226H45.7984V6.89516H44.5646V5.40323H43.0968V6.89516H42.2097V8.03226H43.0968V11.5C43.0968 11.8871 43.1775 12.2177 43.3549 12.4758C43.5242 12.7339 43.7581 12.9274 44.0565 13.0484C44.3549 13.1694 44.6855 13.2258 45.0484 13.2177C45.2581 13.2097 45.4355 13.1936 45.5807 13.1613C45.7258 13.129 45.8387 13.0968 45.9194 13.0726L45.6694 11.9194C45.621 11.9274 45.5646 11.9355 45.4839 11.9516Z" fill="white"/>
  <path d="M51.2984 7.25001C51.0484 7.08872 50.7823 6.97582 50.4839 6.90324C50.1855 6.83066 49.8871 6.7984 49.5887 6.7984C49.1532 6.7984 48.7581 6.86292 48.3952 6.99195C48.0323 7.12098 47.7339 7.31453 47.4839 7.57259C47.2339 7.83066 47.0565 8.14517 46.9436 8.52421L48.3145 8.71775C48.3871 8.50001 48.5323 8.31453 48.7419 8.1613C48.9516 8.00808 49.2339 7.92743 49.5968 7.92743C49.9355 7.92743 50.2016 8.00808 50.379 8.17743C50.5645 8.34679 50.6532 8.58066 50.6532 8.88711V8.9113C50.6532 9.0484 50.6048 9.15324 50.5 9.22582C50.3952 9.29034 50.2258 9.33872 50 9.37098C49.7742 9.40324 49.4758 9.4355 49.1129 9.47582C48.8065 9.50808 48.5161 9.56453 48.2339 9.62905C47.9516 9.70163 47.6936 9.80647 47.4677 9.94356C47.2419 10.0807 47.0645 10.2661 46.9355 10.5C46.8065 10.7339 46.7419 11.0242 46.7419 11.371C46.7419 11.7823 46.8307 12.121 47.0161 12.4032C47.2016 12.6855 47.4516 12.8952 47.7661 13.0323C48.0807 13.1774 48.4355 13.2419 48.8307 13.2419C49.1532 13.2419 49.4436 13.1936 49.6855 13.1049C49.9274 13.0161 50.129 12.8952 50.2903 12.7419C50.4516 12.5887 50.5807 12.4274 50.6694 12.2581H50.7177V13.1129H52.129V8.9355C52.129 8.52421 52.0565 8.17743 51.9032 7.89518C51.75 7.61292 51.5484 7.4113 51.2984 7.25001ZM50.6532 10.8871C50.6532 11.121 50.5968 11.3307 50.4758 11.5242C50.3548 11.7178 50.1936 11.879 49.9758 11.9919C49.7581 12.1129 49.5 12.1694 49.2097 12.1694C48.9032 12.1694 48.6532 12.0968 48.4516 11.9597C48.25 11.8226 48.1532 11.6129 48.1532 11.3468C48.1532 11.1532 48.2016 11 48.3065 10.879C48.4032 10.7581 48.5403 10.6613 48.7178 10.5968C48.8952 10.5323 49.0887 10.4839 49.3065 10.4516C49.4032 10.4355 49.5161 10.4194 49.6532 10.4032C49.7823 10.3871 49.9194 10.3629 50.0565 10.3387C50.1936 10.3145 50.3145 10.2823 50.4274 10.25C50.5403 10.2178 50.6129 10.1855 50.6613 10.1452V10.8871H50.6532Z" fill="white"/>
  <path d="M55.5484 8.22582C55.7742 8.06453 56.0403 7.98388 56.3387 7.98388C56.6936 7.98388 56.9758 8.08872 57.1936 8.29034C57.4113 8.49195 57.5403 8.74195 57.5968 9.04034H59C58.9678 8.58872 58.8387 8.19356 58.6049 7.86292C58.371 7.52421 58.0565 7.26614 57.6694 7.08066C57.2742 6.89518 56.8307 6.7984 56.3226 6.7984C55.7097 6.7984 55.1855 6.9355 54.742 7.20969C54.2984 7.48389 53.9516 7.86292 53.7097 8.34679C53.4678 8.83066 53.3468 9.39518 53.3468 10.0242C53.3468 10.6532 53.4678 11.2097 53.7097 11.6936C53.9516 12.1774 54.2903 12.5565 54.742 12.8307C55.1855 13.1049 55.7258 13.2419 56.3468 13.2419C56.871 13.2419 57.3226 13.1452 57.7097 12.9516C58.0968 12.7581 58.4033 12.4919 58.6291 12.1532C58.8549 11.8145 58.9839 11.4194 59.0162 10.9839H57.6129C57.5726 11.2097 57.492 11.4032 57.371 11.5565C57.2581 11.7097 57.1129 11.8307 56.9355 11.9194C56.7662 12 56.5726 12.0403 56.3549 12.0403C56.0484 12.0403 55.7823 11.9597 55.5565 11.7984C55.3307 11.6371 55.1533 11.4032 55.0323 11.0968C54.9113 10.7903 54.8468 10.4274 54.8468 10C54.8468 9.58066 54.9113 9.21775 55.0323 8.91937C55.1452 8.62098 55.3226 8.38711 55.5484 8.22582Z" fill="white"/>
  <path d="M63.3307 9.58066L65.75 6.87905H64.0323L61.7904 9.38711H61.6855V4.7984H60.2178V13.129H61.6855V11.0242L62.2258 10.4516L64.1371 13.129H65.8952L63.3307 9.58066Z" fill="white"/>
  <path d="M17.6694 6.59678L6.24195 0L5.06454 0.677419V2.04032L3.88712 1.3629L2.7097 2.04032V3.40323L1.53228 2.72581L0.354858 3.40323V16.5968L1.53228 17.2742L2.7097 16.5968V17.9597L3.88712 18.6371L5.06454 17.9597V19.3226L6.24195 20L17.6694 13.4032V12.0403L16.492 11.3629L17.6694 10.6855V9.32258L16.492 8.64516L17.6694 7.96774V6.59678ZM2.7097 15.2339L1.53228 15.9113V4.08064L2.7097 4.75806V15.2339ZM6.24195 18.6371V17.2742L15.3145 12.0403L16.492 12.7177L6.24195 18.6371ZM6.24195 15.9113V8.15323L5.06454 7.47581V16.5968L3.88712 17.2742V5.43548L10.6049 9.31452L11.7823 8.6371L3.88712 4.08064V2.71774L14.1371 8.6371L7.41937 12.5161V13.879L15.3145 9.32258L16.492 10L6.24195 15.9113ZM15.3145 7.95161L6.24195 2.71774V1.35484L16.492 7.27419L15.3145 7.95161Z" fill="white"/>
</svg>