<svg xmlns="http://www.w3.org/2000/svg" width="76" height="20" viewBox="0 0 76 20" fill="none">
  <g clip-path="url(#clip0_251_729)">
    <path fill-rule="evenodd" clip-rule="evenodd" d="M20.3485 9.91297C20.3485 15.3877 15.9025 19.8259 10.4182 19.8259C5.21499 19.8259 0.946452 15.8311 0.522522 10.7462H13.6481V9.07969H0.522522C0.946452 3.99485 5.21499 0 10.4182 0C15.9025 0 20.3485 4.43818 20.3485 9.91297ZM57.1636 18.0299C60.6045 18.0299 62.8613 16.1755 62.8613 13.3825C62.8613 10.7907 61.1631 9.5618 58.5937 9.13728L56.3146 8.75742C54.5719 8.46697 53.4099 7.70728 53.4099 6.03151C53.4099 4.33342 54.7059 3.0375 57.1636 3.0375C59.5544 3.0375 60.7832 4.24404 60.9173 5.96449H62.6378C62.5038 3.68546 60.7609 1.65219 57.1859 1.65219C53.6557 1.65219 51.7119 3.64076 51.7119 6.09856C51.7119 8.71274 53.4769 9.9193 55.8901 10.3215L58.1915 10.679C60.113 11.0141 61.1854 11.7961 61.1854 13.4496C61.1854 15.3935 59.5991 16.6447 57.1859 16.6447C54.6836 16.6447 53.1195 15.4381 52.9854 13.3825H51.2874C51.4214 16.0638 53.4769 18.0299 57.1636 18.0299ZM31.7971 17.7172H25.5409V1.98735H31.5737C34.2326 1.98735 36.087 3.55139 36.087 6.05387C36.087 7.86369 35.0593 9.07023 33.4059 9.47241V9.53946C35.3721 9.9193 36.5786 11.2599 36.5786 13.3602C36.5786 16.0638 34.5901 17.7172 31.7971 17.7172ZM31.3503 8.8915C33.2495 8.8915 34.4114 7.86369 34.4114 6.25495V6.03151C34.4114 4.42279 33.2495 3.41733 31.3503 3.41733H27.2168V8.8915H31.3503ZM31.5514 16.2872C33.6294 16.2872 34.9029 15.1477 34.9029 13.4049V13.1814C34.9029 11.3716 33.607 10.2768 31.529 10.2768H27.2168V16.2872H31.5514ZM50.111 17.7172H48.3234L46.9829 13.4496H40.7267L39.3861 17.7172H37.6879L42.8494 1.98735H44.8825L50.111 17.7172ZM43.9441 3.7078H43.8101L41.1735 12.0419H46.5584L43.9441 3.7078ZM65.3782 17.7172V1.98735H75.4775V3.43968H67.0541V8.84681H74.8072V10.2768H67.0541V16.2648H75.4775V17.7172H65.3782Z" fill="white"/>
  </g>
  <defs>
    <clipPath id="clip0_251_729">
      <rect width="74.955" height="20" fill="white" transform="translate(0.522522)"/>
    </clipPath>
  </defs>
</svg>