<svg xmlns="http://www.w3.org/2000/svg" width="135" height="20" viewBox="0 0 135 20" fill="none">
  <path d="M41.8453 11.3707H36.5177V17.134H41.9699C44.4312 17.134 45.5216 15.8567 45.5216 14.2679C45.5216 12.5234 44.4 11.3707 41.8453 11.3707ZM41.3156 3.42679H36.5177V9.12773H41.1599C43.2784 9.12773 44.6493 8.31776 44.6493 6.16822C44.6493 4.42368 43.6212 3.42679 41.3156 3.42679ZM33.6514 19.6262V0.93458H41.2533C45.4593 0.93458 47.4844 2.64798 47.4844 5.70093C47.4844 7.85047 46.5498 9.34579 44.7116 10.0623V10.1246C47.2664 10.6854 48.4191 12.1495 48.4191 14.5794C48.4191 17.4455 46.5186 19.6262 42.0945 19.6262H33.6514Z" fill="#F3F4F5"/>
  <path d="M60.7051 19.6262V15.7009H60.674C60.0508 18.6604 58.1504 20 55.5956 20C51.8258 20 50.5172 17.5078 50.5172 14.3925V5.07788H53.2278V13.7072C53.2278 15.7009 54.1001 17.5078 56.7172 17.5078C59.2096 17.5078 60.7051 16.1371 60.7051 13.7072V5.07788H63.4156V19.6262H60.7051Z" fill="#F3F4F5"/>
  <path d="M69.778 2.83489H66.6936V0.529596H69.778V2.83489ZM69.5599 19.6262H66.8805V5.07788H69.5599V19.6262Z" fill="#F3F4F5"/>
  <path d="M75.745 0.529596V19.6262H73.0344V0.529596H75.745Z" fill="#F3F4F5"/>
  <path d="M85.0899 17.5078C87.8316 17.5078 89.5763 15.7321 89.5763 12.4922V12.2741C89.5763 9.15888 87.8316 7.13396 85.0899 7.13396C82.2236 7.13396 80.7905 9.06542 80.7905 12.3988C80.7905 15.6698 82.1613 17.5078 85.0899 17.5078ZM89.5763 19.6262V15.3583H89.4829C88.8598 18.2554 87.1462 20 84.093 20C80.1362 20 78.0799 17.0716 78.0799 12.3988C78.0799 7.60125 80.292 4.6729 84.0618 4.70405C87.2397 4.6729 88.9221 6.47975 89.514 9.4081H89.5763V0.529596H92.2869V19.6262H89.5763Z" fill="#F3F4F5"/>
  <path d="M101.906 7.0405C99.4135 7.0405 97.7622 8.38006 97.3884 11.0903H106.112C105.925 8.50467 104.585 7.0405 101.906 7.0405ZM102.031 19.9688C97.5441 19.9688 94.6155 17.2274 94.6155 12.4611C94.6155 7.60125 97.5753 4.70405 101.999 4.70405C106.33 4.70405 108.667 7.47664 108.667 11.4642C108.667 11.9315 108.667 12.5234 108.604 13.2087H97.326C97.6064 16.0436 99.2577 17.6012 102.031 17.6012C104.648 17.6012 105.676 16.2617 106.174 14.5483L108.573 15.2648C107.825 18.1308 105.738 19.9688 102.031 19.9688Z" fill="#F3F4F5"/>
  <path d="M113.699 19.6262H110.988V5.07788H113.699V9.56386H113.761C114.353 6.16822 115.724 5.07788 118.061 5.07788H118.964V8.06854H117.656C114.914 8.06854 113.699 9.12773 113.699 11.9315V19.6262Z" fill="#F3F4F5"/>
  <path d="M124.972 4.79751V5.07788H129.241V7.41433H124.972V19.6262H122.262V7.41433H119.738V5.07788H122.262V4.79751C122.262 1.93147 123.851 0 127.153 0C128.213 0 128.929 0.124611 129.49 0.249222L129.241 2.3053C128.587 2.18069 128.057 2.11838 127.465 2.11838C125.689 2.11838 124.972 3.05296 124.972 4.79751Z" fill="#F3F4F5"/>
  <path d="M134.732 2.83489H131.648V0.529596H134.732V2.83489ZM134.514 19.6262H131.835V5.07788H134.514V19.6262Z" fill="#F3F4F5"/>
  <path d="M2.12349 9.9775C0.923276 9.9775 3.25187e-05 10.8941 3.26229e-05 12.0858L1.64213e-06 19.5948L9.41711 19.5948L9.41711 12.0858C9.41711 10.5731 10.017 9.9775 11.5406 9.9775L18.9189 9.97749L18.9189 0.811003L11.5406 0.811008C10.3404 0.811008 9.41711 1.72766 9.41711 2.9193L9.41711 7.86921C9.41711 9.38194 8.81727 9.9775 7.29365 9.9775L2.12349 9.9775Z" fill="#F3F4F5"/>
</svg>