<svg width="139" height="20" viewBox="0 0 139 20" fill="none" xmlns="http://www.w3.org/2000/svg">
<path d="M2.24483 9.76001C0.976035 9.76001 3.43836e-05 10.736 3.44945e-05 12.0048L1.74845e-06 20L9.95522 20L9.95523 12.0048C9.95523 10.3941 10.5893 9.76001 12.2 9.76001L20 9.76L20 -1.74846e-06L12.2 3.86558e-06C10.9312 3.9765e-06 9.95523 0.976003 9.95523 2.2448L9.95523 7.51521C9.95523 9.12589 9.32111 9.76001 7.71043 9.76001L2.24483 9.76001Z" fill="#F3F4F5"/>
<path d="M42.9832 20C41.6387 20 40.6022 19.7572 39.8739 19.2717C39.1643 18.7862 38.6321 18.2446 38.2773 17.6471H37.8291V19.6078H35V0H37.8852V7.67507H38.3333C38.5574 7.30159 38.8562 6.94678 39.2297 6.61064C39.6032 6.25584 40.098 5.96639 40.7143 5.7423C41.3305 5.51821 42.0868 5.40616 42.9832 5.40616C44.141 5.40616 45.2054 5.68627 46.1765 6.2465C47.1475 6.80672 47.9225 7.61905 48.5014 8.68347C49.0803 9.7479 49.3697 11.0177 49.3697 12.493V12.9132C49.3697 14.4071 49.071 15.6863 48.4734 16.7507C47.8945 17.7964 47.1195 18.5994 46.1485 19.1597C45.1961 19.7199 44.141 20 42.9832 20ZM42.1429 17.479C43.394 17.479 44.4211 17.0775 45.2241 16.2745C46.0457 15.4715 46.4566 14.3231 46.4566 12.8291V12.577C46.4566 11.1018 46.0551 9.96265 45.2521 9.15966C44.4491 8.35668 43.4127 7.95518 42.1429 7.95518C40.9104 7.95518 39.8833 8.35668 39.0616 9.15966C38.2586 9.96265 37.8571 11.1018 37.8571 12.577V12.8291C37.8571 14.3231 38.2586 15.4715 39.0616 16.2745C39.8833 17.0775 40.9104 17.479 42.1429 17.479Z" fill="#F3F4F5"/>
<path d="M57.1183 19.8599C56.0726 19.8599 55.1389 19.6265 54.3172 19.1597C53.4956 18.6928 52.8513 18.0299 52.3845 17.1709C51.9176 16.3119 51.6842 15.2848 51.6842 14.0896V5.79832H54.5693V13.8936C54.5693 15.0887 54.8681 15.9757 55.4657 16.5546C56.0633 17.1148 56.8943 17.395 57.9587 17.395C59.1352 17.395 60.0782 17.0028 60.7878 16.2185C61.5161 15.4155 61.8802 14.267 61.8802 12.7731V5.79832H64.7654V19.6078H61.9363V17.535H61.4881C61.2267 18.0952 60.7598 18.6274 60.0875 19.1316C59.4153 19.6172 58.4255 19.8599 57.1183 19.8599Z" fill="#F3F4F5"/>
<path d="M67.9099 19.6078V5.79832H70.795V19.6078H67.9099ZM69.3665 3.92157C68.8062 3.92157 68.33 3.74416 67.9379 3.38935C67.5644 3.01587 67.3777 2.53968 67.3777 1.96078C67.3777 1.38189 67.5644 0.915033 67.9379 0.560225C68.33 0.186742 68.8062 0 69.3665 0C69.9454 0 70.4215 0.186742 70.795 0.560225C71.1685 0.915033 71.3553 1.38189 71.3553 1.96078C71.3553 2.53968 71.1685 3.01587 70.795 3.38935C70.4215 3.74416 69.9454 3.92157 69.3665 3.92157Z" fill="#F3F4F5"/>
<path d="M73.9564 19.6078V0H76.8415V19.6078H73.9564Z" fill="#F3F4F5"/>
<path d="M85.7171 20C84.578 20 83.5229 19.7199 82.5519 19.1597C81.5808 18.5994 80.7965 17.7964 80.1989 16.7507C79.62 15.6863 79.3306 14.4071 79.3306 12.9132V12.493C79.3306 11.0177 79.62 9.7479 80.1989 8.68347C80.7778 7.61905 81.5528 6.80672 82.5238 6.2465C83.4949 5.68627 84.5593 5.40616 85.7171 5.40616C86.6135 5.40616 87.3604 5.51821 87.958 5.7423C88.5743 5.96639 89.0785 6.25584 89.4706 6.61064C89.8628 6.94678 90.1616 7.30159 90.367 7.67507H90.8152V0H93.7003V19.6078H90.8712V17.6471H90.423C90.0682 18.2446 89.5266 18.7862 88.7984 19.2717C88.0887 19.7572 87.0617 20 85.7171 20ZM86.5294 17.479C87.7806 17.479 88.8077 17.0775 89.6107 16.2745C90.4323 15.4715 90.8432 14.3231 90.8432 12.8291V12.577C90.8432 11.1018 90.4417 9.96265 89.6387 9.15966C88.8357 8.35668 87.7993 7.95518 86.5294 7.95518C85.297 7.95518 84.2699 8.35668 83.4482 9.15966C82.6452 9.96265 82.2437 11.1018 82.2437 12.577V12.8291C82.2437 14.3231 82.6452 15.4715 83.4482 16.2745C84.2699 17.0775 85.297 17.479 86.5294 17.479Z" fill="#F3F4F5"/>
<path d="M103.158 20C101.757 20 100.534 19.7105 99.4881 19.1316C98.4424 18.5341 97.6207 17.7031 97.0231 16.6387C96.4442 15.5556 96.1548 14.3044 96.1548 12.8852V12.549C96.1548 11.1111 96.4442 9.85994 97.0231 8.79552C97.602 7.71242 98.405 6.88142 99.4321 6.30252C100.478 5.70495 101.682 5.40616 103.046 5.40616C104.371 5.40616 105.529 5.70495 106.519 6.30252C107.527 6.88142 108.312 7.69374 108.872 8.73949C109.432 9.78525 109.712 11.0084 109.712 12.409V13.5014H99.096C99.1333 14.7152 99.5348 15.6863 100.3 16.4146C101.085 17.1242 102.056 17.479 103.214 17.479C104.297 17.479 105.109 17.2362 105.651 16.7507C106.211 16.2652 106.64 15.7049 106.939 15.07L109.32 16.3025C109.059 16.8254 108.676 17.3763 108.172 17.9552C107.686 18.5341 107.042 19.0196 106.239 19.4118C105.436 19.8039 104.409 20 103.158 20ZM99.124 11.2885H106.771C106.696 10.2428 106.323 9.43044 105.651 8.85154C104.978 8.25397 104.101 7.95518 103.018 7.95518C101.934 7.95518 101.047 8.25397 100.356 8.85154C99.6842 9.43044 99.2734 10.2428 99.124 11.2885Z" fill="#F3F4F5"/>
<path d="M112.065 19.6078V5.79832H114.894V7.42297H115.342C115.566 6.84407 115.921 6.4239 116.406 6.16246C116.911 5.88235 117.527 5.7423 118.255 5.7423H119.908V8.34734H118.143C117.209 8.34734 116.444 8.60878 115.846 9.13165C115.249 9.63585 114.95 10.4202 114.95 11.4846V19.6078H112.065Z" fill="#F3F4F5"/>
<path d="M121.489 20C120.836 20 120.285 19.7852 119.837 19.3557C119.407 18.9262 119.192 18.3753 119.192 17.7031C119.192 17.0308 119.407 16.4893 119.837 16.0784C120.285 15.6489 120.836 15.4342 121.489 15.4342C122.143 15.4342 122.684 15.6489 123.114 16.0784C123.562 16.5079 123.786 17.0495 123.786 17.7031C123.786 18.3753 123.562 18.9262 123.114 19.3557C122.684 19.7852 122.143 20 121.489 20Z" fill="#F3F4F5"/>
<path d="M127.225 19.6078V8.23529H123.36V5.79832H127.225V2.77311C127.225 1.93277 127.477 1.2605 127.981 0.756303C128.486 0.252101 129.158 0 129.998 0H133.556V2.43697H130.923C130.381 2.43697 130.11 2.71709 130.11 3.27731V5.79832H134.088V8.23529H130.11V19.6078H127.225Z" fill="#F3F4F5"/>
<path d="M135.183 19.6078V5.79832H138.068V19.6078H135.183ZM136.639 3.92157C136.079 3.92157 135.603 3.74416 135.211 3.38935C134.837 3.01587 134.65 2.53968 134.65 1.96078C134.65 1.38189 134.837 0.915033 135.211 0.560225C135.603 0.186742 136.079 0 136.639 0C137.218 0 137.694 0.186742 138.068 0.560225C138.441 0.915033 138.628 1.38189 138.628 1.96078C138.628 2.53968 138.441 3.01587 138.068 3.38935C137.694 3.74416 137.218 3.92157 136.639 3.92157Z" fill="#F3F4F5"/>
</svg>
