<svg xmlns="http://www.w3.org/2000/svg" width="58" height="16" viewBox="0 0 58 16" fill="none">
  <g clip-path="url(#clip0_179_766)">
    <path d="M21.5034 5.73346H19.5093V10.2848H20.5377V6.71972H20.833L22.4766 10.2848H23.6003L21.5034 5.73346Z" fill="#F3F4F5"/>
    <path d="M39.4536 10.2848H40.4821V5.73346H39.4536V10.2848Z" fill="#F3F4F5"/>
    <path d="M25.6973 5.73346L23.6003 10.2848H24.7259L26.3677 6.71972H26.6629V10.2848H27.6914V5.73346H25.6973Z" fill="#F3F4F5"/>
    <path d="M32.2912 5.73346H30.4094L28.3125 10.2848H29.4362L30.1199 8.80181H32.5807L33.2644 10.2848H34.3881L32.2912 5.73346ZM30.5751 7.81556L31.0798 6.71972H31.6207L32.1255 7.81556H30.5751Z" fill="#F3F4F5"/>
    <path d="M37.3573 5.73346H34.9823V10.2848H36.0108V6.71972H36.6869L38.3305 10.2848H39.4542L37.3573 5.73346Z" fill="#F3F4F5"/>
    <path d="M41.0543 5.73346V6.71972H43.4541V10.2848H44.4826V6.71972H46.8823V5.73346H41.0543Z" fill="#F3F4F5"/>
    <path d="M48.482 5.73346H47.4535V10.2848H51.9292V9.29859H48.482V5.73346Z" fill="#F3F4F5"/>
    <path d="M57.3568 6.71972V5.73346H52.5001V10.2848H57.3568V9.29859H53.5286V8.43653H56.8483V7.45028H53.5286V6.71972H57.3568Z" fill="#F3F4F5"/>
    <path d="M3.60562 5.85409L1.32394 4.73999C1.14491 5.07605 0.994451 5.42854 0.872559 5.78834L3.30851 6.54447C3.3885 6.30704 3.48754 6.07509 3.60562 5.85409Z" fill="#F3F4F5"/>
    <path d="M5.5422 3.89077L6.80684 5.97835C6.99159 5.87607 7.18966 5.79754 7.39345 5.74457L6.74018 3.41408C6.90588 3.37208 7.07539 3.33555 7.2468 3.30998L6.84493 0.884521C6.4564 0.942966 6.06977 1.03246 5.69647 1.14935L6.47735 3.44696C6.22785 3.5255 5.98597 3.62229 5.75361 3.73553L4.60515 1.58586C4.25661 1.75754 3.9176 1.95662 3.60144 2.17944L5.11177 4.16291C5.2489 4.06428 5.39365 3.97479 5.5422 3.89077Z" fill="#F3F4F5"/>
    <path d="M12.3254 5.62037L10.1484 6.8331C10.2551 7.01026 10.3389 7.2002 10.3941 7.39563L12.8244 6.76735C12.8701 6.92624 12.9063 7.08879 12.9329 7.25134L15.4622 6.86597C15.4013 6.49339 15.3079 6.12263 15.1841 5.76465L12.7901 6.51531C12.7082 6.27605 12.6072 6.04409 12.4892 5.82127L14.7308 4.71813C14.5518 4.3839 14.3442 4.0588 14.1119 3.75562L12.0454 5.20395C12.1444 5.3391 12.2378 5.47791 12.3254 5.62037Z" fill="#F3F4F5"/>
    <path d="M11.4376 1.57485C11.0871 1.40317 10.7195 1.25889 10.3443 1.142L9.55774 3.47796C9.80343 3.55467 10.0453 3.64964 10.2777 3.76288L11.4376 1.57485Z" fill="#F3F4F5"/>
    <path d="M10.5274 3.8488L9.24939 5.97655C9.43413 6.07883 9.60555 6.20485 9.75601 6.34914L13.3404 2.89907C13.0624 2.63241 12.7595 2.38585 12.4434 2.16486L10.9654 4.12093C10.8245 4.0223 10.6797 3.93098 10.5274 3.8488Z" fill="#F3F4F5"/>
    <path d="M3.69345 5.61305L5.91037 6.84039C6.01703 6.66323 6.14844 6.49886 6.2989 6.35275L2.70497 2.91364C2.4269 3.18029 2.16978 3.47069 1.93933 3.77387L3.97723 5.19298C3.87628 5.32814 3.78106 5.46877 3.69345 5.61305Z" fill="#F3F4F5"/>
    <path d="M8.80707 3.2679L9.1937 0.880793C8.81088 0.824174 8.42044 0.794952 8.03001 0.794952H8.02429V5.66413H8.03001C8.24332 5.66413 8.45663 5.6897 8.66042 5.74267L9.3175 3.37018C9.1499 3.32634 8.98039 3.29347 8.80707 3.2679Z" fill="#F3F4F5"/>
    <path d="M5.66828 7.4047L3.19424 6.77277C3.15043 6.93349 3.11425 7.09786 3.08758 7.26224L0.598304 6.88966C0.539262 7.25676 0.508789 7.63483 0.508789 8.00924H5.58639C5.58639 7.80286 5.61495 7.60012 5.66828 7.4047Z" fill="#F3F4F5"/>
    <path d="M12.4579 10.1643L14.7396 11.2784C14.9186 10.9423 15.0691 10.5898 15.191 10.23L12.755 9.47388C12.675 9.71131 12.576 9.94326 12.4579 10.1643Z" fill="#F3F4F5"/>
    <path d="M10.5188 12.126L9.25604 10.0384C9.0713 10.1407 8.87322 10.2192 8.66943 10.2722L9.3227 12.6027C9.157 12.6447 8.9875 12.6812 8.81609 12.7068L9.21795 15.1322C9.60648 15.0738 9.99311 14.9843 10.3664 14.8674L9.58553 12.5698C9.83503 12.4912 10.0769 12.3944 10.3093 12.2812L11.4577 14.4309C11.8063 14.2592 12.1453 14.0601 12.4614 13.8373L10.953 11.8538C10.814 11.9543 10.6692 12.0438 10.5188 12.126Z" fill="#F3F4F5"/>
    <path d="M3.73901 10.3982L5.91594 9.18543C5.80928 9.00826 5.72548 8.81832 5.67025 8.62289L3.24001 9.25118C3.1943 9.09228 3.15811 8.92973 3.13145 8.76718L0.602173 9.15255C0.663119 9.52514 0.756444 9.89589 0.880241 10.2539L3.27429 9.50322C3.35619 9.74065 3.45713 9.97443 3.57522 10.1973L1.33353 11.3004C1.51256 11.6346 1.72016 11.9597 1.95252 12.2629L4.01898 10.8146C3.91994 10.6794 3.82662 10.5406 3.73901 10.3982Z" fill="#F3F4F5"/>
    <path d="M4.62683 14.4437C4.97727 14.6154 5.34486 14.7597 5.72006 14.8766L6.50665 12.5406C6.26096 12.4639 6.01908 12.3689 5.78672 12.2557L4.62683 14.4437Z" fill="#F3F4F5"/>
    <path d="M5.53449 12.1697L6.81246 10.042C6.62772 9.93968 6.45631 9.81366 6.30585 9.66937L2.72144 13.1194C2.9995 13.3861 3.30233 13.6327 3.61849 13.8537L5.09644 11.8976C5.23738 11.9944 5.38403 12.0857 5.53449 12.1697Z" fill="#F3F4F5"/>
    <path d="M12.3688 10.4054L10.1518 9.1781C10.0452 9.35526 9.91377 9.51964 9.76331 9.66575L13.3591 13.1049C13.6372 12.8382 13.8943 12.5478 14.1248 12.2446L12.0869 10.8255C12.1878 10.6885 12.2831 10.5497 12.3688 10.4054Z" fill="#F3F4F5"/>
    <path d="M7.40085 10.2759L6.74377 12.6484C6.91138 12.6904 7.08279 12.7251 7.2542 12.7507L6.86757 15.1378C7.25039 15.1944 7.64083 15.2236 8.03127 15.2236H8.03698V10.3544H8.03127C7.81796 10.3544 7.60464 10.327 7.40085 10.2759Z" fill="#F3F4F5"/>
    <path d="M10.4773 8.00922C10.4773 8.2156 10.4506 8.41833 10.3954 8.61375L12.8694 9.24569C12.9132 9.08497 12.9494 8.92059 12.9761 8.75621L15.4654 9.1288C15.5244 8.76169 15.5549 8.38363 15.5549 8.00922H10.4773Z" fill="#F3F4F5"/>
  </g>
  <defs>
    <clipPath id="clip0_179_766">
      <rect width="56.25" height="15" fill="white" transform="translate(0.854858 0.5)"/>
    </clipPath>
  </defs>
</svg>