<svg xmlns="http://www.w3.org/2000/svg" width="76" height="20" viewBox="0 0 76 20" fill="none">
  <g clip-path="url(#clip0_127_33)">
    <path d="M28.4908 6.97791H25.8321V13.0464H27.2034V8.29291H27.597L29.7885 13.0464H31.2868L28.4908 6.97791Z" fill="black"/>
    <path d="M52.4245 13.0464H53.7958V6.97791H52.4245V13.0464Z" fill="black"/>
    <path d="M34.0827 6.97791L31.2868 13.0464H32.7876L34.9766 8.29291H35.3702V13.0464H36.7415V6.97791H34.0827Z" fill="black"/>
    <path d="M42.8746 6.97791H40.3656L37.5697 13.0464H39.068L39.9796 11.069H43.2606L44.1722 13.0464H45.6705L42.8746 6.97791ZM40.5866 9.75403L41.2595 8.29291H41.9807L42.6536 9.75403H40.5866Z" fill="black"/>
    <path d="M49.6294 6.97791H46.4627V13.0464H47.834V8.29291H48.7355L50.9271 13.0464H52.4253L49.6294 6.97791Z" fill="black"/>
    <path d="M54.5587 6.97791V8.29291H57.7584V13.0464H59.1297V8.29291H62.3294V6.97791H54.5587Z" fill="black"/>
    <path d="M64.4624 6.97791H63.0911V13.0464H69.0587V11.7314H64.4624V6.97791Z" fill="black"/>
    <path d="M76.2954 8.29291V6.97791H69.8199V13.0464H76.2954V11.7314H71.1912V10.582H75.6174V9.26699H71.1912V8.29291H76.2954Z" fill="black"/>
    <path d="M4.62724 7.13873L1.585 5.65326C1.34629 6.10134 1.14568 6.57133 0.983154 7.05106L4.23109 8.05924C4.33775 7.74266 4.4698 7.43339 4.62724 7.13873Z" fill="black"/>
    <path d="M7.20945 4.52103L8.89563 7.30447C9.14196 7.16809 9.40606 7.06338 9.67778 6.99276L8.80675 3.88545C9.02768 3.82944 9.25369 3.78073 9.48224 3.74664L8.94642 0.512695C8.42838 0.590622 7.91287 0.709946 7.41514 0.865799L8.45631 3.92928C8.12364 4.03399 7.80114 4.16306 7.49133 4.31404L5.96005 1.44781C5.49533 1.67672 5.04331 1.94216 4.62177 2.23925L6.63554 4.88388C6.81838 4.75238 7.01137 4.63305 7.20945 4.52103Z" fill="black"/>
    <path d="M16.2535 6.82716L13.351 8.44413C13.4932 8.68035 13.6049 8.93361 13.6785 9.19417L16.9189 8.35646C16.9798 8.56833 17.0281 8.78506 17.0636 9.00179L20.436 8.48796C20.3547 7.99118 20.2303 7.49684 20.0652 7.01954L16.8731 8.02041C16.764 7.7014 16.6294 7.39213 16.4719 7.09503L19.4608 5.62417C19.2221 5.17853 18.9453 4.74506 18.6355 4.34082L15.8802 6.27193C16.0123 6.45214 16.1367 6.63721 16.2535 6.82716Z" fill="black"/>
    <path d="M15.0698 1.43316C14.6026 1.20425 14.1125 1.01187 13.6122 0.856018L12.5634 3.97064C12.891 4.07292 13.2135 4.19955 13.5233 4.35053L15.0698 1.43316Z" fill="black"/>
    <path d="M13.8563 4.46504L12.1523 7.30205C12.3986 7.43842 12.6272 7.60645 12.8278 7.79883L17.607 3.19874C17.2363 2.8432 16.8325 2.51445 16.4109 2.21979L14.4403 4.82789C14.2524 4.69638 14.0594 4.57463 13.8563 4.46504Z" fill="black"/>
    <path d="M4.7444 6.81736L7.7003 8.45382C7.84251 8.2176 8.01773 7.99844 8.21834 7.80362L3.42643 3.21814C3.05567 3.57368 2.71285 3.96087 2.40558 4.36512L5.12277 6.25727C4.98818 6.43747 4.86121 6.62498 4.7444 6.81736Z" fill="black"/>
    <path d="M11.5624 3.69051L12.078 0.507703C11.5675 0.432212 11.0469 0.39325 10.5264 0.39325H10.5187V6.88549H10.5264C10.8108 6.88549 11.0952 6.91958 11.3669 6.9902L12.243 3.82688C12.0195 3.76844 11.7935 3.7246 11.5624 3.69051Z" fill="black"/>
    <path d="M7.37746 9.20623L4.07874 8.36365C4.02033 8.57794 3.97208 8.79711 3.93653 9.01628L0.617491 8.5195C0.538769 9.00898 0.498138 9.51306 0.498138 10.0123H7.26827C7.26827 9.7371 7.30636 9.46679 7.37746 9.20623Z" fill="black"/>
    <path d="M16.4303 12.8857L19.4725 14.3711C19.7112 13.923 19.9119 13.4531 20.0744 12.9733L16.8264 11.9651C16.7198 12.2817 16.5877 12.591 16.4303 12.8857Z" fill="black"/>
    <path d="M13.8447 15.5013L12.1611 12.7178C11.9148 12.8542 11.6507 12.9589 11.3789 13.0295L12.25 16.1369C12.029 16.1929 11.803 16.2416 11.5745 16.2757L12.1103 19.5096C12.6283 19.4317 13.1438 19.3124 13.6416 19.1565L12.6004 16.093C12.9331 15.9883 13.2556 15.8592 13.5654 15.7083L15.0967 18.5745C15.5614 18.3456 16.0134 18.0801 16.4349 17.7831L14.4237 15.1384C14.2383 15.2724 14.0453 15.3917 13.8447 15.5013Z" fill="black"/>
    <path d="M4.80501 13.1975L7.70758 11.5805C7.56537 11.3443 7.45364 11.0911 7.37999 10.8305L4.13967 11.6682C4.07873 11.4564 4.03048 11.2396 3.99493 11.0229L0.622559 11.5367C0.70382 12.0335 0.828253 12.5278 0.993316 13.0051L4.18538 12.0043C4.29458 12.3208 4.42917 12.6326 4.58662 12.9296L1.5977 14.4005C1.83641 14.8461 2.11321 15.2796 2.42302 15.6839L5.1783 13.7527C5.04625 13.5725 4.92182 13.3875 4.80501 13.1975Z" fill="black"/>
    <path d="M5.98895 18.5916C6.45621 18.8205 6.94632 19.0129 7.44659 19.1687L8.49537 16.0541C8.16779 15.9518 7.84528 15.8252 7.53547 15.6742L5.98895 18.5916Z" fill="black"/>
    <path d="M7.19905 15.5596L8.90301 12.7226C8.65668 12.5862 8.42813 12.4182 8.22752 12.2258L3.4483 16.8259C3.81906 17.1815 4.22283 17.5102 4.64438 17.8049L6.61498 15.1968C6.80289 15.3258 6.99843 15.4476 7.19905 15.5596Z" fill="black"/>
    <path d="M16.3114 13.2072L13.3555 11.5707C13.2133 11.807 13.0381 12.0261 12.8375 12.2209L17.6319 16.8064C18.0027 16.4509 18.3455 16.0637 18.6528 15.6594L15.9356 13.7673C16.0702 13.5846 16.1971 13.3996 16.3114 13.2072Z" fill="black"/>
    <path d="M9.68763 13.0345L8.81152 16.1978C9.03499 16.2538 9.26354 16.3001 9.49209 16.3342L8.97659 19.517C9.48701 19.5925 10.0076 19.6314 10.5282 19.6314H10.5358V13.1392H10.5282C10.2438 13.1392 9.95935 13.1027 9.68763 13.0345Z" fill="black"/>
    <path d="M13.7895 10.0123C13.7895 10.2874 13.754 10.5578 13.6803 10.8183L16.9791 11.6609C17.0375 11.4466 17.0857 11.2274 17.1213 11.0083L20.4403 11.505C20.519 11.0156 20.5597 10.5115 20.5597 10.0123H13.7895Z" fill="black"/>
  </g>
  <defs>
    <clipPath id="clip0_127_33">
      <rect width="75" height="20" fill="white" transform="translate(0.959656)"/>
    </clipPath>
  </defs>
</svg>