<svg xmlns="http://www.w3.org/2000/svg" width="82" height="20" viewBox="0 0 82 20" fill="none">
  <path d="M27.6426 17.2021V6.76568H29.1727L29.3184 7.60809H29.3912C29.8284 7.03108 30.5713 6.6178 31.6056 6.6178C33.4986 6.6178 35.0143 8.1851 35.0143 10.505C35.0143 12.825 33.4999 14.3923 31.6056 14.3923C30.5856 14.3923 29.8726 13.9631 29.494 13.4759H29.4212V17.2008H27.6439L27.6426 17.2021ZM33.2358 10.5064C33.2358 9.14635 32.3758 8.28942 31.3272 8.28942C30.2785 8.28942 29.4186 9.14635 29.4186 10.5064C29.4186 11.8664 30.2785 12.7233 31.3272 12.7233C32.3758 12.7233 33.2358 11.8664 33.2358 10.5064Z" fill="black"/>
  <path d="M35.9159 10.5064C35.9159 8.24454 37.5175 6.61914 39.659 6.61914C41.8005 6.61914 43.4021 8.24454 43.4021 10.5064C43.4021 12.7682 41.8005 14.3936 39.659 14.3936C37.5175 14.3936 35.9159 12.7524 35.9159 10.5064ZM41.6106 10.5064C41.6106 9.17542 40.7363 8.28944 39.659 8.28944C38.5818 8.28944 37.6931 9.17674 37.6931 10.5064C37.6931 11.836 38.5818 12.7088 39.659 12.7088C40.7363 12.7088 41.6106 11.8373 41.6106 10.5064Z" fill="black"/>
  <path d="M44.6901 14.2457V3.89911H46.4673V14.247H44.6901V14.2457Z" fill="black"/>
  <path d="M53.0649 6.76569H54.9579L51.7535 15.8566C51.4334 16.7584 50.9963 17.2021 49.8448 17.2021H48.1262V15.5318H49.5833C49.8461 15.5318 49.9906 15.3984 50.079 15.1766L50.2534 14.6894L47.2532 6.76569H49.1462L51.0548 11.9548H51.3462L53.0649 6.76569Z" fill="black"/>
  <path d="M55.2975 14.6154H57.1033C57.1762 15.1026 57.6563 15.7681 58.7934 15.7681C59.8563 15.7681 60.5563 15.0881 60.5563 14.0529V13.0032H60.4834C60.0905 13.4323 59.3619 13.8166 58.4291 13.8166C56.5361 13.8166 55.0789 12.3377 55.0789 10.2093C55.0789 8.08079 56.5361 6.6178 58.4291 6.6178C59.4049 6.6178 60.1191 7.01656 60.5706 7.57904H60.6435L60.7892 6.76568H62.3335V14.0529C62.3335 16.0335 61.0221 17.35 58.7934 17.35C56.3032 17.35 55.3417 15.6942 55.2975 14.6154ZM60.5563 10.2106C60.5563 9.04336 59.7405 8.23 58.7062 8.23C57.6719 8.23 56.8704 9.04336 56.8704 10.2106C56.8704 11.3778 57.6862 12.2057 58.7062 12.2057C59.7262 12.2057 60.5563 11.3923 60.5563 10.2106Z" fill="black"/>
  <path d="M63.5682 10.5064C63.5682 8.24454 65.1698 6.61914 67.3113 6.61914C69.4528 6.61914 71.0543 8.24454 71.0543 10.5064C71.0543 12.7682 69.4528 14.3936 67.3113 14.3936C65.1698 14.3936 63.5682 12.7524 63.5682 10.5064ZM69.2628 10.5064C69.2628 9.17542 68.3885 8.28944 67.3113 8.28944C66.234 8.28944 65.3454 9.17674 65.3454 10.5064C65.3454 11.836 66.234 12.7088 67.3113 12.7088C68.3885 12.7088 69.2628 11.8373 69.2628 10.5064Z" fill="black"/>
  <path d="M72.2916 14.2457V6.76568H73.8204L73.9661 7.47473H74.0389C74.3304 7.13539 75.0589 6.6178 76.1648 6.6178C77.8549 6.6178 79.0779 7.85897 79.0779 9.75109V14.2444H77.3006V9.98744C77.3006 9.0262 76.6306 8.33167 75.7134 8.33167C74.7961 8.33167 74.0676 9.05656 74.0676 9.98744V14.2444H72.2903L72.2916 14.2457Z" fill="black"/>
  <path d="M17.2994 13.3729L21.6683 10.8127C21.8999 10.6767 22.043 10.4245 22.043 10.1538V5.03333C22.043 4.76265 21.8999 4.51046 21.6683 4.37446L17.2994 1.81421C17.0678 1.67821 16.7803 1.67953 16.55 1.81421L12.1811 4.37446C11.9495 4.51046 11.8064 4.76265 11.8064 5.03333V14.1837L8.74246 15.9781L5.67851 14.1837V10.5935L8.74246 8.79909L10.763 9.98349V7.57509L9.11716 6.60988C9.00397 6.54386 8.87386 6.50821 8.74246 6.50821C8.61105 6.50821 8.48095 6.54386 8.36776 6.60988L3.99887 9.17012C3.76729 9.30613 3.62418 9.55832 3.62418 9.829V14.9495C3.62418 15.2202 3.76729 15.4724 3.99887 15.6084L8.36776 18.1686C8.59934 18.3033 8.88557 18.3033 9.11716 18.1686L13.486 15.6084C13.7176 15.4724 13.8607 15.2202 13.8607 14.9495V5.79784L13.9154 5.76615L16.9234 4.00343L19.9873 5.79784V9.38799L16.9234 11.1824L14.9055 10.0007V12.409L16.5487 13.3716C16.7803 13.5063 17.0678 13.5063 17.2981 13.3716L17.2994 13.3729Z" fill="black"/>
</svg>