<svg xmlns="http://www.w3.org/2000/svg" width="61" height="16" viewBox="0 0 61 16" fill="none">
  <path d="M20.1171 13.4016V5.57429H21.2646L21.3739 6.2061H21.4285C21.7564 5.77334 22.3135 5.46338 23.0893 5.46338C24.509 5.46338 25.6458 6.63886 25.6458 8.37881C25.6458 10.1188 24.51 11.2942 23.0893 11.2942C22.3243 11.2942 21.7896 10.9724 21.5056 10.607H21.451V13.4006H20.118L20.1171 13.4016ZM24.3119 8.3798C24.3119 7.35979 23.6669 6.71709 22.8805 6.71709C22.094 6.71709 21.449 7.35979 21.449 8.3798C21.449 9.3998 22.094 10.0425 22.8805 10.0425C23.6669 10.0425 24.3119 9.3998 24.3119 8.3798Z" fill="#F3F4F5"/>
  <path d="M26.322 8.37978C26.322 6.68341 27.5232 5.46436 29.1293 5.46436C30.7355 5.46436 31.9366 6.68341 31.9366 8.37978C31.9366 10.0762 30.7355 11.2952 29.1293 11.2952C27.5232 11.2952 26.322 10.0643 26.322 8.37978ZM30.593 8.37978C30.593 7.38157 29.9373 6.71708 29.1293 6.71708C28.3214 6.71708 27.6549 7.38256 27.6549 8.37978C27.6549 9.37701 28.3214 10.0316 29.1293 10.0316C29.9373 10.0316 30.593 9.378 30.593 8.37978Z" fill="#F3F4F5"/>
  <path d="M32.9027 11.1843V3.42435H34.2356V11.1853H32.9027V11.1843Z" fill="#F3F4F5"/>
  <path d="M39.1837 5.57428H40.6035L38.2002 12.3925C37.9601 13.0688 37.6323 13.4016 36.7687 13.4016H35.4797V12.1488H36.5726C36.7697 12.1488 36.878 12.0488 36.9443 11.8825L37.0751 11.517L34.825 5.57428H36.2447L37.6762 9.46614H37.8947L39.1837 5.57428Z" fill="#F3F4F5"/>
  <path d="M40.8581 11.4616H42.2125C42.2672 11.827 42.6272 12.3261 43.4801 12.3261C44.2773 12.3261 44.8022 11.8161 44.8022 11.0397V10.2524H44.7476C44.4529 10.5743 43.9065 10.8625 43.2068 10.8625C41.7871 10.8625 40.6942 9.75334 40.6942 8.15698C40.6942 6.56063 41.7871 5.46338 43.2068 5.46338C43.9387 5.46338 44.4744 5.76245 44.813 6.18431H44.8676L44.9769 5.57429H46.1352V11.0397C46.1352 12.5252 45.1516 13.5125 43.4801 13.5125C41.6124 13.5125 40.8913 12.2707 40.8581 11.4616ZM44.8022 8.15797C44.8022 7.28255 44.1904 6.67253 43.4147 6.67253C42.6389 6.67253 42.0379 7.28255 42.0379 8.15797C42.0379 9.03339 42.6497 9.65431 43.4147 9.65431C44.1797 9.65431 44.8022 9.04429 44.8022 8.15797Z" fill="#F3F4F5"/>
  <path d="M47.0613 8.37978C47.0613 6.68341 48.2625 5.46436 49.8686 5.46436C51.4747 5.46436 52.6759 6.68341 52.6759 8.37978C52.6759 10.0762 51.4747 11.2952 49.8686 11.2952C48.2625 11.2952 47.0613 10.0643 47.0613 8.37978ZM51.3323 8.37978C51.3323 7.38157 50.6765 6.71708 49.8686 6.71708C49.0606 6.71708 48.3942 7.38256 48.3942 8.37978C48.3942 9.37701 49.0606 10.0316 49.8686 10.0316C50.6765 10.0316 51.3323 9.378 51.3323 8.37978Z" fill="#F3F4F5"/>
  <path d="M53.6038 11.1843V5.57429H54.7503L54.8596 6.10608H54.9142C55.1328 5.85157 55.6792 5.46338 56.5086 5.46338C57.7762 5.46338 58.6934 6.39426 58.6934 7.81335V11.1833H57.3605V7.99061C57.3605 7.26968 56.858 6.74878 56.1701 6.74878C55.4821 6.74878 54.9357 7.29245 54.9357 7.99061V11.1833H53.6028L53.6038 11.1843Z" fill="#F3F4F5"/>
  <path d="M12.3597 10.5297L15.6363 8.60954C15.81 8.50754 15.9174 8.31839 15.9174 8.11538V4.27501C15.9174 4.072 15.81 3.88286 15.6363 3.78086L12.3597 1.86068C12.186 1.75867 11.9703 1.75967 11.7976 1.86068L8.52096 3.78086C8.34727 3.88286 8.23994 4.072 8.23994 4.27501V11.1378L5.94198 12.4836L3.64402 11.1378V8.44515L5.94198 7.09934L7.45736 7.98763V6.18133L6.22301 5.45743C6.13811 5.40791 6.04054 5.38117 5.94198 5.38117C5.84343 5.38117 5.74585 5.40791 5.66096 5.45743L2.3843 7.37761C2.21061 7.47961 2.10327 7.66876 2.10327 7.87177V11.7121C2.10327 11.9151 2.21061 12.1043 2.3843 12.2063L5.66096 14.1265C5.83465 14.2275 6.04932 14.2275 6.22301 14.1265L9.49967 12.2063C9.67336 12.1043 9.78069 11.9151 9.78069 11.7121V4.8484L9.82168 4.82463L12.0777 3.50258L14.3756 4.8484V7.54101L12.0777 8.88682L10.5642 8.0005V9.8068L11.7966 10.5287C11.9703 10.6297 12.186 10.6297 12.3587 10.5287L12.3597 10.5297Z" fill="#F3F4F5"/>
</svg>