<svg xmlns="http://www.w3.org/2000/svg" width="57" height="16" viewBox="0 0 57 16" fill="none">
  <g clip-path="url(#clip0_252_740)">
    <path d="M31.8155 12.3566C31.5346 12.7447 31.1618 13.0331 30.6972 13.2219C30.2325 13.4003 29.7139 13.4894 29.1412 13.4894C28.6874 13.4894 28.2715 13.437 27.8932 13.3321C27.5259 13.2272 27.2018 13.0698 26.9208 12.8601C26.6399 12.6398 26.4184 12.3723 26.2563 12.0576C26.0942 11.7325 26.0132 11.3653 26.0132 10.9563C26.0132 10.5053 26.105 10.1224 26.2887 9.80771C26.4724 9.48258 26.7209 9.22034 27.0342 9.021C27.3584 8.82172 27.7366 8.67488 28.1688 8.58047C28.601 8.4756 29.0548 8.42317 29.5302 8.42317H31.7183C31.7183 7.81475 31.5778 7.34277 31.2969 7.00711C31.0159 6.67145 30.5243 6.49839 29.822 6.48789C29.4114 6.48789 29.0548 6.55607 28.7523 6.69243C28.4605 6.82879 28.266 7.05431 28.1688 7.36896H26.2725C26.3373 6.92844 26.4832 6.55607 26.7101 6.25189C26.9478 5.9477 27.2287 5.69596 27.5529 5.49667C27.8879 5.29737 28.2553 5.15577 28.655 5.07186C29.0656 4.98794 29.4762 4.94598 29.8868 4.94598C30.4163 4.94598 30.9079 5.01416 31.3617 5.15052C31.8155 5.28689 32.2099 5.51764 32.5448 5.84281C32.9231 6.22042 33.1769 6.67145 33.3066 7.19593C33.4363 7.72034 33.5011 8.29205 33.5011 8.91087V13.3793H31.8965L31.8155 12.3566ZM31.7183 9.69758H29.9354C29.6221 9.69758 29.3087 9.72383 28.9954 9.77626C28.682 9.81823 28.4119 9.92837 28.185 10.1067C27.9689 10.2745 27.8608 10.521 27.8608 10.8461C27.8608 11.2447 28.0067 11.5489 28.2984 11.7587C28.601 11.958 28.9683 12.0576 29.4006 12.0576C29.7355 12.0576 30.0435 12.0157 30.3244 11.9318C30.6161 11.8478 30.8646 11.7115 31.0699 11.5227C31.2753 11.3234 31.4319 11.0769 31.54 10.7832C31.6589 10.479 31.7183 10.1171 31.7183 9.69758Z" fill="#F3F4F5"/>
    <path d="M36.5385 1.64188C36.8735 1.64188 37.149 1.74152 37.3651 1.94082C37.592 2.14011 37.7054 2.41283 37.7054 2.75897C37.7054 3.09463 37.592 3.3621 37.3651 3.5614C37.149 3.76069 36.8735 3.86034 36.5385 3.86034C36.182 3.86034 35.8956 3.76069 35.6795 3.5614C35.4634 3.3621 35.3553 3.09463 35.3553 2.75897C35.3553 2.41283 35.4634 2.14011 35.6795 1.94082C35.8956 1.74152 36.182 1.64188 36.5385 1.64188ZM35.5984 13.3793V5.08757H37.4462V13.3793H35.5984Z" fill="#F3F4F5"/>
    <path d="M52.1309 4.94598C52.8116 4.94598 53.4113 5.05088 53.9299 5.26066C54.4486 5.47044 54.8862 5.76414 55.2427 6.14175C55.6101 6.50887 55.8856 6.95466 56.0693 7.47909C56.253 8.00356 56.3448 8.58574 56.3448 9.22554C56.3448 9.87587 56.253 10.4633 56.0693 10.9878C55.8964 11.5017 55.6317 11.9475 55.2751 12.3251C54.9186 12.7027 54.4755 12.9912 53.9461 13.1905C53.4275 13.3897 52.8223 13.4894 52.1309 13.4894C51.4501 13.4894 50.8504 13.3897 50.3318 13.1905C49.8132 12.9807 49.3756 12.6922 49.019 12.3251C48.6732 11.9475 48.4085 11.4965 48.2248 10.972C48.0519 10.4476 47.9655 9.86541 47.9655 9.22554C47.9655 8.58574 48.0519 8.00356 48.2248 7.47909C48.4085 6.95466 48.6786 6.50887 49.0352 6.14175C49.3918 5.76414 49.8294 5.47044 50.348 5.26066C50.8667 5.05088 51.4609 4.94598 52.1309 4.94598ZM52.1309 11.9318C52.5523 11.9318 52.9088 11.8636 53.2006 11.7272C53.5031 11.5804 53.7462 11.3863 53.9299 11.1451C54.1244 10.9038 54.2648 10.6206 54.3513 10.2955C54.4485 9.97028 54.4972 9.61889 54.4972 9.24133C54.4972 8.8637 54.4485 8.51231 54.3513 8.18712C54.2648 7.85146 54.1244 7.56304 53.9299 7.32179C53.7462 7.08054 53.5031 6.89173 53.2006 6.75537C52.9088 6.61901 52.5523 6.55083 52.1309 6.55083C51.7202 6.55083 51.3691 6.61901 51.0774 6.75537C50.7856 6.89173 50.5425 7.08054 50.348 7.32179C50.1535 7.56304 50.0077 7.85146 49.9104 8.18712C49.8239 8.51231 49.7807 8.8637 49.7807 9.24133C49.7807 9.61889 49.8239 9.97028 49.9104 10.2955C50.0077 10.6206 50.1481 10.9038 50.3318 11.1451C50.5263 11.3863 50.7694 11.5804 51.0612 11.7272C51.3637 11.8636 51.7202 11.9318 52.1309 11.9318Z" fill="#F3F4F5"/>
    <path d="M42.7448 8.47032H41.4158V2.58447H39.5844V13.3793H41.4158V10.0279H42.8583L45.1112 13.3793H47.2505L44.3331 9.03676L47.0237 5.08757H44.949L42.7448 8.47032Z" fill="#F3F4F5"/>
    <path d="M24.7637 5.06401H22.5759V2.58447H22.0106L19.3518 6.09122V6.54468H20.7171V10.6486C20.7171 11.6174 20.9419 12.3147 21.3916 12.7405C21.8522 13.1663 22.6143 13.3793 23.678 13.3793H24.6979V11.8143H23.8425C23.3491 11.8143 23.0146 11.6972 22.8391 11.463C22.6636 11.2288 22.5759 10.8722 22.5759 10.3931V6.54468H24.7637V5.06401Z" fill="#F3F4F5"/>
    <path d="M16.9294 12.5961L13.9846 8.71203C13.6646 8.29 13.1909 8.03717 12.6864 7.98144C12.5716 7.96848 12.4691 7.90381 12.4116 7.80624C12.3532 7.70868 12.347 7.59026 12.3932 7.48671C12.5952 7.03482 12.6075 6.51024 12.3901 6.03046L10.3978 1.61289C10.1025 0.956918 9.43497 0.533875 8.69769 0.533875C7.96048 0.533875 7.29293 0.957914 6.99765 1.61289L5.00532 6.03046C4.78897 6.51024 4.80025 7.03482 5.00225 7.48671C5.04839 7.59026 5.04121 7.70868 4.98379 7.80624C4.92534 7.90381 4.82383 7.96848 4.70898 7.98144C4.2045 8.03717 3.73077 8.29 3.41086 8.71203L0.465965 12.5961C0.0291533 13.1724 -0.0149386 13.9449 0.353173 14.565C0.72231 15.1841 1.43392 15.5335 2.16604 15.4549L7.10324 14.9214C7.63951 14.8636 8.10198 14.5919 8.40343 14.1957C8.47215 14.1051 8.58187 14.0514 8.69769 14.0514C8.81358 14.0514 8.92228 14.1051 8.99202 14.1957C9.29346 14.5919 9.75594 14.8636 10.2922 14.9214L15.2294 15.4549C15.9615 15.5345 16.6731 15.1851 17.0423 14.565C17.4103 13.9449 17.3663 13.1724 16.9294 12.5961ZM6.2932 6.5849L8.28856 2.16235C8.36039 2.00408 8.52135 1.90155 8.69871 1.90155C8.87613 1.90155 9.03709 2.00408 9.10892 2.16235L11.1043 6.5849C11.1669 6.72426 11.1535 6.88551 11.0674 7.01292C10.9812 7.14032 10.8357 7.21697 10.6778 7.21697H6.71873C6.56185 7.21697 6.41522 7.14032 6.32909 7.01292C6.24295 6.88551 6.22962 6.72426 6.29217 6.5849H6.2932ZM7.31753 13.3178C7.24678 13.4541 7.10941 13.5457 6.95353 13.5626L2.01121 14.0962C1.83484 14.1151 1.66258 14.0315 1.57338 13.8822C1.48416 13.7328 1.49545 13.5467 1.60106 13.4074L4.54903 9.51934C4.64234 9.3969 4.79204 9.32723 4.94893 9.33618C5.10581 9.34414 5.24731 9.42875 5.32627 9.56111L5.32935 9.56611L7.30323 12.8848L7.30628 12.8897C7.38523 13.0222 7.3893 13.1834 7.31855 13.3187L7.31753 13.3178ZM9.10377 11.8167C9.01967 11.957 8.8659 12.0447 8.69769 12.0447C8.53057 12.0447 8.37578 11.9581 8.29167 11.8177L6.77513 9.26848C6.69105 9.12815 6.69105 8.95394 6.77513 8.81361C6.85921 8.67322 7.01304 8.58565 7.18118 8.58565H10.2133C10.3804 8.58565 10.5352 8.67124 10.6193 8.81263C10.7034 8.95394 10.7034 9.12717 10.6193 9.2675L9.10377 11.8167ZM15.8231 13.8822C15.7339 14.0315 15.5626 14.1161 15.3853 14.0972L10.4429 13.5636C10.2871 13.5467 10.1497 13.4551 10.0789 13.3187C10.0082 13.1824 10.0122 13.0211 10.0912 12.8897L10.0943 12.8848L12.0681 9.56611L12.0712 9.56111C12.1502 9.42875 12.2917 9.34414 12.4485 9.33618C12.6054 9.32822 12.7551 9.3969 12.8485 9.51934L15.7964 13.4074C15.902 13.5467 15.9123 13.7328 15.8241 13.8822H15.8231Z" fill="#F3F4F5"/>
  </g>
  <defs>
    <clipPath id="clip0_252_740">
      <rect width="56.25" height="15" fill="white" transform="translate(0.104858 0.5)"/>
    </clipPath>
  </defs>
</svg>