<svg xmlns="http://www.w3.org/2000/svg" width="76" height="20" viewBox="0 0 76 20" fill="none">
  <g clip-path="url(#clip0_127_62)">
    <path d="M43.2404 15.8088C42.8659 16.3262 42.3689 16.7108 41.7494 16.9626C41.1298 17.2004 40.4383 17.3192 39.6748 17.3192C39.0697 17.3192 38.5151 17.2493 38.0107 17.1094C37.521 16.9696 37.0888 16.7598 36.7142 16.4801C36.3396 16.1864 36.0443 15.8298 35.8282 15.4102C35.612 14.9767 35.504 14.4871 35.504 13.9417C35.504 13.3404 35.6265 12.8298 35.8713 12.4103C36.1163 11.9768 36.4477 11.6271 36.8654 11.3613C37.2976 11.0956 37.8019 10.8998 38.3782 10.774C38.9544 10.6341 39.5595 10.5642 40.1934 10.5642H43.1108C43.1108 9.753 42.9235 9.1237 42.549 8.67615C42.1743 8.2286 41.5188 7.99785 40.5824 7.98386C40.0349 7.98386 39.5595 8.07476 39.1562 8.25658C38.7672 8.43839 38.5078 8.73908 38.3782 9.15861H35.8498C35.9362 8.57125 36.1307 8.07476 36.4332 7.66918C36.7502 7.2636 37.1248 6.92794 37.557 6.66222C38.0036 6.3965 38.4935 6.20769 39.0265 6.09581C39.5739 5.98393 40.1214 5.92798 40.6688 5.92798C41.3748 5.92798 42.0303 6.01888 42.6354 6.2007C43.2404 6.38251 43.7663 6.69019 44.2129 7.12374C44.7172 7.62722 45.0557 8.2286 45.2286 8.92791C45.4015 9.62712 45.4879 10.3894 45.4879 11.2145V17.1724H43.3485L43.2404 15.8088ZM43.1108 12.2634H40.7337C40.3159 12.2634 39.898 12.2984 39.4803 12.3683C39.0625 12.4243 38.7023 12.5712 38.3998 12.8089C38.1116 13.0326 37.9676 13.3613 37.9676 13.7948C37.9676 14.3263 38.1621 14.7319 38.551 15.0116C38.9544 15.2773 39.4442 15.4102 40.0206 15.4102C40.4671 15.4102 40.8777 15.3542 41.2523 15.2424C41.6413 15.1305 41.9726 14.9487 42.2463 14.6969C42.5201 14.4312 42.729 14.1026 42.8731 13.711C43.0316 13.3054 43.1108 12.8228 43.1108 12.2634Z" fill="black"/>
    <path d="M49.5378 1.52252C49.9845 1.52252 50.3518 1.65538 50.6399 1.92111C50.9425 2.18684 51.0937 2.55046 51.0937 3.01199C51.0937 3.45952 50.9425 3.81615 50.6399 4.08188C50.3518 4.3476 49.9845 4.48047 49.5378 4.48047C49.0624 4.48047 48.6806 4.3476 48.3925 4.08188C48.1043 3.81615 47.9603 3.45952 47.9603 3.01199C47.9603 2.55046 48.1043 2.18684 48.3925 1.92111C48.6806 1.65538 49.0624 1.52252 49.5378 1.52252ZM48.2844 17.1724V6.11678H50.748V17.1724H48.2844Z" fill="black"/>
    <path d="M70.3277 5.92798C71.2353 5.92798 72.0349 6.06784 72.7264 6.34755C73.418 6.62726 74.0014 7.01886 74.4768 7.52233C74.9667 8.01183 75.334 8.60622 75.579 9.30545C75.8238 10.0048 75.9463 10.781 75.9463 11.634C75.9463 12.5012 75.8238 13.2844 75.579 13.9837C75.3484 14.669 74.9955 15.2633 74.52 15.7669C74.0446 16.2703 73.4539 16.6549 72.748 16.9206C72.0565 17.1863 71.2496 17.3192 70.3277 17.3192C69.42 17.3192 68.6204 17.1863 67.929 16.9206C67.2374 16.6409 66.654 16.2563 66.1785 15.7669C65.7174 15.2633 65.3645 14.6619 65.1196 13.9626C64.8891 13.2634 64.7738 12.4872 64.7738 11.634C64.7738 10.781 64.8891 10.0048 65.1196 9.30545C65.3645 8.60622 65.7247 8.01183 66.2001 7.52233C66.6756 7.01886 67.259 6.62726 67.9506 6.34755C68.6421 6.06784 69.4345 5.92798 70.3277 5.92798ZM70.3277 15.2424C70.8896 15.2424 71.3649 15.1514 71.7539 14.9697C72.1573 14.7739 72.4815 14.5151 72.7264 14.1934C72.9857 13.8718 73.173 13.4941 73.2883 13.0606C73.4179 12.627 73.4827 12.1585 73.4827 11.6551C73.4827 11.1516 73.4179 10.6831 73.2883 10.2495C73.173 9.80194 72.9857 9.41738 72.7264 9.09572C72.4815 8.77405 72.1573 8.5223 71.7539 8.34049C71.3649 8.15868 70.8896 8.06777 70.3277 8.06777C69.7802 8.06777 69.3119 8.15868 68.923 8.34049C68.534 8.5223 68.2099 8.77405 67.9506 9.09572C67.6912 9.41738 67.4968 9.80194 67.3671 10.2495C67.2518 10.6831 67.1941 11.1516 67.1941 11.6551C67.1941 12.1585 67.2518 12.627 67.3671 13.0606C67.4968 13.4941 67.684 13.8718 67.929 14.1934C68.1882 14.5151 68.5124 14.7739 68.9014 14.9697C69.3048 15.1514 69.7802 15.2424 70.3277 15.2424Z" fill="black"/>
    <path d="M57.8129 10.6271H56.0409V2.7793H53.599V17.1724H56.0409V12.7039H57.9643L60.9681 17.1724H63.8206L59.9307 11.3823L63.5181 6.11675H60.7519L57.8129 10.6271Z" fill="black"/>
    <path d="M33.8382 6.08534H30.9212V2.7793H30.1674L26.6223 7.45496V8.05958H28.4427V13.5315C28.4427 14.8231 28.7425 15.7529 29.342 16.3207C29.9561 16.8884 30.9723 17.1724 32.3906 17.1724H33.7505V15.0858H32.6099C31.952 15.0858 31.506 14.9296 31.272 14.6174C31.0381 14.3051 30.9212 13.8295 30.9212 13.1908V8.05958H33.8382V6.08534Z" fill="black"/>
    <path d="M23.3924 16.1281L19.466 10.9494C19.0394 10.3867 18.4077 10.0496 17.7351 9.97526C17.582 9.95797 17.4453 9.87175 17.3687 9.74166C17.2908 9.61157 17.2825 9.45368 17.3441 9.31561C17.6135 8.7131 17.6298 8.01366 17.34 7.37395L14.6836 1.48385C14.2899 0.609224 13.3998 0.045166 12.4168 0.045166C11.4338 0.045166 10.5438 0.610552 10.15 1.48385L7.49361 7.37395C7.20513 8.01366 7.22018 8.7131 7.48951 9.31561C7.55103 9.45368 7.54146 9.61157 7.46489 9.74166C7.38697 9.87175 7.25161 9.95797 7.09849 9.97526C6.42585 10.0496 5.79421 10.3867 5.36766 10.9494L1.44113 16.1281C0.858716 16.8966 0.799926 17.9265 1.29074 18.7533C1.78292 19.5789 2.73174 20.0447 3.7079 19.9399L10.2908 19.2285C11.0059 19.1515 11.6225 18.7892 12.0244 18.261C12.116 18.1402 12.2623 18.0685 12.4168 18.0685C12.5713 18.0685 12.7162 18.1402 12.8092 18.261C13.2111 18.7892 13.8278 19.1515 14.5428 19.2285L21.1257 19.9399C22.1019 20.046 23.0507 19.5802 23.5429 18.7533C24.0336 17.9265 23.9749 16.8966 23.3924 16.1281ZM9.21078 8.1132L11.8713 2.21647C11.967 2.00544 12.1816 1.86874 12.4181 1.86874C12.6547 1.86874 12.8693 2.00544 12.9651 2.21647L15.6256 8.1132C15.709 8.29901 15.6912 8.51401 15.5763 8.6839C15.4615 8.85376 15.2674 8.95596 15.0569 8.95596H9.77816C9.56898 8.95596 9.37347 8.85376 9.25863 8.6839C9.14378 8.51401 9.12601 8.29901 9.2094 8.1132H9.21078ZM10.5766 17.0903C10.4822 17.2722 10.2991 17.3943 10.0912 17.4168L3.50146 18.1282C3.2663 18.1534 3.03662 18.042 2.91768 17.8429C2.79873 17.6438 2.81377 17.3956 2.95459 17.2098L6.88522 12.0258C7.00963 11.8625 7.20923 11.7696 7.41841 11.7816C7.62759 11.7922 7.81626 11.905 7.92154 12.0815L7.92564 12.0881L10.5575 16.5131L10.5616 16.5196C10.6668 16.6962 10.6722 16.9112 10.5779 17.0917L10.5766 17.0903ZM12.9582 15.0889C12.8461 15.276 12.641 15.3929 12.4168 15.3929C12.1939 15.3929 11.9875 15.2774 11.8754 15.0903L9.85335 11.6913C9.74124 11.5042 9.74124 11.2719 9.85335 11.0848C9.96546 10.8976 10.1706 10.7809 10.3947 10.7809H14.4375C14.6603 10.7809 14.8667 10.895 14.9789 11.0835C15.091 11.2719 15.091 11.5029 14.9789 11.69L12.9582 15.0889ZM21.9173 17.8429C21.7984 18.042 21.57 18.1548 21.3335 18.1296L14.7438 17.4181C14.5359 17.3956 14.3528 17.2735 14.2584 17.0917C14.1641 16.9099 14.1695 16.6948 14.2748 16.5196L14.2789 16.5131L16.9107 12.0881L16.9148 12.0815C17.02 11.905 17.2087 11.7922 17.4179 11.7816C17.6271 11.771 17.8267 11.8625 17.9511 12.0258L21.8818 17.2098C22.0225 17.3956 22.0362 17.6438 21.9186 17.8429H21.9173Z" fill="black"/>
  </g>
  <defs>
    <clipPath id="clip0_127_62">
      <rect width="75" height="20" fill="white" transform="translate(0.959656)"/>
    </clipPath>
  </defs>
</svg>